<?xml version="1.0" encoding="utf-8"?>
<!-- Generator: Adobe Illustrator 24.0.1, SVG Export Plug-In . SVG Version: 6.00 Build 0)  -->
<svg version="1.1" id="Capa_1" xmlns="http://www.w3.org/2000/svg" xmlns:xlink="http://www.w3.org/1999/xlink" x="0px" y="0px"
	 viewBox="0 0 199 100" style="enable-background:new 0 0 199 100;" xml:space="preserve">
<style type="text/css">
	.st0{opacity:0.3;}
	.st1{fill:#808080;}
	.st2{fill:#39B44A;}
</style>
<g class="st0">
	<path class="st1" d="M73.2,0.3h4.3c0.8,0,1.2,0.5,1.2,1.4v96.9c0,0.9-0.4,1.4-1.2,1.4h-2.2c-0.8,0-1.2-0.5-1.2-1.4V9.3h-0.6
		L42.9,77c-0.4,0.8-1,1.2-1.9,1.2H38c-0.8,0-1.4-0.4-1.9-1.2L5.3,9.1H4.7v89.4c0,0.9-0.4,1.4-1.2,1.4H1.3c-0.8,0-1.2-0.5-1.2-1.4
		V1.7c0-0.9,0.4-1.4,1.2-1.4h4.3c0.5,0,0.9,0.2,1.1,0.6l32.4,71.6h0.6L72.2,0.9C72.4,0.5,72.7,0.3,73.2,0.3z"/>
	<path class="st1" d="M110.1,100H108c-0.8,0-1.2-0.5-1.2-1.4V1.7c0-0.9,0.4-1.4,1.2-1.4h2.2c0.8,0,1.2,0.5,1.2,1.4v44
		c0,0.8,0.5,1.2,1.4,1.2h48c0.9,0,1.4-0.4,1.4-1.2v-44c0-0.9,0.4-1.4,1.2-1.4h2.2c0.8,0,1.2,0.5,1.2,1.4v96.9c0,0.9-0.4,1.4-1.2,1.4
		h-2.2c-0.8,0-1.2-0.5-1.2-1.4v-46c0-0.8-0.5-1.2-1.4-1.2h-48c-0.9,0-1.4,0.4-1.4,1.2v46C111.4,99.5,110.9,100,110.1,100z"/>
	<path class="st2" d="M198.2,80.1v18.4c0,0.9-0.4,1.4-1.2,1.4h-3.3c-0.8,0-1.2-0.5-1.2-1.4V80.1c0-0.9,0.4-1.4,1.2-1.4h3.3
		C197.7,78.7,198.2,79.2,198.2,80.1z"/>
</g>
</svg>
